<svg width="2115" height="641" viewBox="0 0 2115 641" fill="none" xmlns="http://www.w3.org/2000/svg">
<g filter="url(#filter0_d_60_87)">
<rect x="187" y="116.032" width="1715" height="419" fill="#A61B19"/>
<path d="M292.014 82.4522C451.641 69.6756 664.477 26.7076 720 0V116.128H290.857C260.782 127.741 227.237 147.483 216.827 160.257V317.032H147.424V248.516C141.64 215.999 98.8414 206.709 76.8637 206.709H6.30383C-23.7709 126.579 60.6697 85.9338 113.879 82.4522H146.267C137.5 53.5322 147 28.5322 166.5 15.5322L178.5 23.0322C168.09 56.7099 211 77.0322 228 82.4522H292.014Z" fill="#971412"/>
<path d="M1791.99 82.4522C1632.36 69.6756 1419.52 26.7076 1364 0V116.128H1793.14C1823.22 127.741 1856.76 147.483 1867.17 160.257V317.032H1936.58V248.516C1942.36 215.999 1985.16 206.709 2007.14 206.709H2077.7C2107.77 126.579 2023.33 85.9338 1970.12 82.4522H1937.73C1946.5 53.5322 1937 28.5322 1917.5 15.5322L1905.5 23.0322C1915.91 56.7099 1873 77.0322 1856 82.4522H1791.99Z" fill="#971412"/>
<path d="M844.374 70.0322L720 0.0322266V116.032H1030V87.0322L844.374 70.0322Z" fill="#971412"/>
<path d="M1239.63 70.0322L1364 0.0322266V116.032H1054V87.0322L1239.63 70.0322Z" fill="#971412"/>
<path d="M1218 93.0322C1218 86.7883 1213.35 80.6069 1204.33 74.8491C1195.31 69.0914 1182.1 63.8727 1165.47 59.4978C1148.83 55.1229 1129.11 51.6796 1107.45 49.3689C1085.79 47.0583 1062.62 45.9266 1039.31 46.04C1016 46.1534 993.008 47.5096 971.676 50.0294C950.343 52.5492 931.1 56.182 915.069 60.7158C899.037 65.2496 886.54 70.5934 878.307 76.435C870.073 82.2767 866.269 88.4992 867.116 94.7391L1042.5 93.0322H1218Z" fill="#971412"/>
<path d="M861 131.532C870.2 126.732 901.167 124.366 911 124.032L895 116.032H787C837 119.632 854.167 128.032 861 131.532Z" fill="#971412"/>
<path d="M1224 131.532C1214.8 126.732 1183.83 124.366 1174 124.032L1190 116.032H1298C1248 119.632 1230.83 128.032 1224 131.532Z" fill="#971412"/>
<path d="M292.014 551.612C451.641 564.389 664.477 604.325 720 631.032V517.937H290.857C260.782 506.324 227.237 486.582 216.827 473.807V317.032H147.424V385.549C141.64 418.065 98.8414 427.355 76.8637 427.355H6.30383C-23.7709 507.485 60.6697 548.13 113.879 551.612H146.267C137.5 580.532 147 605.532 166.5 618.532L178.5 611.032C168.09 577.354 211 557.032 228 551.612H292.014Z" fill="#971412"/>
<path d="M1791.99 551.612C1632.36 564.389 1419.52 604.325 1364 631.032V517.937H1793.14C1823.22 506.324 1856.76 486.582 1867.17 473.807V317.032H1936.58V385.549C1942.36 418.065 1985.16 427.355 2007.14 427.355H2077.7C2107.77 507.485 2023.33 548.13 1970.12 551.612H1937.73C1946.5 580.532 1937 605.532 1917.5 618.532L1905.5 611.032C1915.91 577.354 1873 557.032 1856 551.612H1791.99Z" fill="#971412"/>
<path d="M844.374 564.032L720 631.032V518.032H1030V547.032L844.374 564.032Z" fill="#971412"/>
<path d="M1239.63 564.033L1364 631.032V518.033H1054V547.033L1239.63 564.033Z" fill="#971412"/>
<path d="M1054 547.032H1030V518.032C1034.5 518.532 1049.5 518.532 1054 518.032V547.032Z" fill="#971412"/>
<path d="M1174.5 124.032C1136 116.032 954 117.032 911 124.032L895 116.032V88.0322L1190 86.5322V116.032L1174.5 124.032Z" fill="#971412"/>
<path d="M114 548.032C2.39979 532.832 -2.83333 462.866 8 429.032H10.9994C6.5 490.032 73 519.532 114 523.532C135.2 523.932 153 523.532 165.5 521.032L170.499 525.532C158.499 529.532 149.333 541.699 145.999 548.032H114Z" fill="#77100F"/>
<path d="M287.5 545.532L292 550.032H228C174.799 566.032 171.166 596.032 176 609.032L172.5 611.032C151.7 558.632 200.833 535.199 228 530.032H231.5C242.5 537.032 270.5 543.699 287.5 545.532Z" fill="#77100F"/>
<path d="M234 511.032C237.6 523.432 247.167 533.199 251 538.032C242.2 536.032 234 531.866 231 530.032L229.5 515.532L224 507.532L226 506.532L234 511.032Z" fill="#77100F"/>
<path d="M82 429.032H15V431.032C34.2 430.632 67 435.032 82 437.532C133.2 437.932 150 405.366 152 389.032L149 386.032C144.6 419.632 102.5 428.699 82 429.032Z" fill="#BF2C1B"/>
<path d="M990 524.032L1020.5 520.032L1021 519.032H290C242.4 499.832 220.5 481.032 215.5 474.032L214 476.032C228.8 494.032 268.5 515.532 286.5 524.032H990Z" fill="#BF2C1B"/>
<path d="M518.5 579.532L588.5 526.032H535L451.5 568.532C488.7 574.132 501.5 576.366 518.5 579.532Z" fill="#8E5555"/>
<path d="M721 627.532L835 566.032L828.5 564.532C778.1 586.532 735.833 596.699 721 599.032C659 588.232 569.833 578.532 533 575.032L527 579.532C628.6 594.332 698.667 617.699 721 627.532Z" fill="#77100F"/>
<path d="M112.5 520.532C71.3 516.132 40 491.366 29.5 479.532L71.5 492.532L79 498.032C92.2 510.832 130.5 518.366 148 520.532C134.4 521.732 118.667 521.032 112.5 520.532Z" fill="#8E5555"/>
<path d="M150.499 242.53C152.499 222.53 185.333 188.863 201.499 174.53H194.499C174.899 192.13 156.999 195.863 150.499 195.53C130.5 195.53 122.5 188.62 103 181.532C99.4998 180.26 57.9998 167.533 21.4998 173.032C16.8352 173.735 9.99983 176.532 4.49983 174.53C2.99902 179.533 6.49933 194.53 9.49933 202.03H85.4993C137.099 205.63 150.333 230.53 150.499 242.53Z" fill="#77100F"/>
<path d="M114.5 86.0322H147.5C151.9 94.8322 158.667 101.532 161.5 104.032L106.5 101.532C59.2635 101.532 26.1082 124.032 10 145.532C30 106.032 85.5 88.0322 114.5 86.0322Z" fill="#BF2C1B"/>
<path d="M166.501 18.0322L176.001 24.0322C174.153 31.7969 175.01 36.7419 175.808 38.6303C175.873 38.7627 175.937 38.8966 176.001 39.0322C175.938 38.9188 175.873 38.7847 175.808 38.6303C172.251 31.3414 168.138 28.8596 166.501 28.5322C156.502 32.1322 148.001 52.6989 145.001 62.5322C143.801 40.1322 158.835 23.5322 166.501 18.0322Z" fill="#8E5555"/>
<path d="M289 113.032C247 128.232 228.5 143.516 216.5 155.032L225 137.032C243 118.549 246.5 117.032 266 105.032C283.5 107.532 289 109.032 311 111.032L314 113.032H289Z" fill="#BF2C1B"/>
<path d="M256 127.032C236.5 137.032 222.833 148.865 216.5 155.031L225 137.031C228.2 133.031 233.667 128.031 236 126.031C240.4 126.431 251.833 126.532 256 127.032Z" fill="#8E5555"/>
<path d="M182 317.032C200.8 297.432 211.167 263.199 214 248.532V317.032V385.532C204.4 347.532 188.667 324.032 182 317.032Z" fill="#77100F"/>
<path d="M182 317.032C201 341.532 209.5 370.032 214 385.532V317.032H182Z" fill="#BF2C1B"/>
<path d="M861 128.032V127.032C848.5 110.532 804 101.366 787 98.5322L719.5 61.5322C654.7 86.7322 442.167 103.032 344 108.032V110.532H787C832.6 112.532 855.333 123.032 861 128.032Z" fill="#77100F"/>
<path d="M470 95.5322C433.6 92.3322 408.167 81.1989 400 76.0322C494.8 64.0322 542.5 53.0322 554.5 49.0322C585.7 60.2322 654.167 64.3656 684.5 65.0322C636.1 79.0322 521.333 91.1989 470 95.5322Z" fill="#8E5555"/>
<path d="M841.5 73.5322L720.5 4.53223L709.5 9.03223L702.5 15.0322L719 10.5322L720.5 15.0322V32.0322C756.5 35.6322 816.167 68.3656 841.5 81.5322L882.5 91.0322C904.5 81.8322 953 78.5322 974.5 78.0322C981.3 61.6322 1010.67 52.5322 1024.5 50.0322C950.1 51.6322 898.833 69.3656 882.5 78.0322L841.5 73.5322Z" fill="#BF2C1B"/>
<path d="M862 115.033C864 102.633 870.167 92.1995 873 88.5328C880.167 87.0328 892.1 85.4328 882.5 91.0328C872.9 96.6328 864.833 109.366 862 115.033Z" fill="#BF2C1B"/>
<path d="M969 114.532H1041V91.5322C996.2 91.5322 974.333 106.866 969 114.532Z" fill="#8E5555"/>
<path d="M1010.5 546.032L1029.5 520.532H1000L943 552.532L1010.5 546.032Z" fill="#8E5555"/>
<path d="M1971 548.032C2082.6 532.832 2087.83 462.866 2077 429.032H2074C2078.5 490.032 2012 519.532 1971 523.532C1949.8 523.932 1932 523.532 1919.5 521.032L1914.5 525.532C1926.5 529.532 1935.67 541.699 1939 548.032H1971Z" fill="#77100F"/>
<path d="M1797.5 545.532L1793 550.032H1857C1910.2 566.032 1913.83 596.032 1909 609.032L1912.5 611.032C1933.3 558.632 1884.17 535.199 1857 530.032H1853.5C1842.5 537.032 1814.5 543.699 1797.5 545.532Z" fill="#77100F"/>
<path d="M1851 511.032C1847.4 523.432 1837.83 533.199 1834 538.032C1842.8 536.032 1851 531.866 1854 530.032L1855.5 515.532L1861 507.532L1859 506.532L1851 511.032Z" fill="#77100F"/>
<path d="M2003 429.032H2070V431.032C2050.8 430.632 2018 435.032 2003 437.532C1951.8 437.932 1935 405.366 1933 389.032L1936 386.032C1940.4 419.632 1982.5 428.699 2003 429.032Z" fill="#BF2C1B"/>
<path d="M1095 524.032L1064.5 520.032L1064 519.032H1795C1842.6 499.832 1864.5 481.032 1869.5 474.032L1871 476.032C1856.2 494.032 1816.5 515.532 1798.5 524.032H1095Z" fill="#BF2C1B"/>
<path d="M1566.5 579.532L1496.5 526.032H1550L1633.5 568.532C1596.3 574.132 1583.5 576.366 1566.5 579.532Z" fill="#8E5555"/>
<path d="M1364 627.532L1250 566.032L1256.5 564.532C1306.9 586.532 1349.17 596.699 1364 599.032C1426 588.232 1515.17 578.532 1552 575.032L1558 579.532C1456.4 594.332 1386.33 617.699 1364 627.532Z" fill="#77100F"/>
<path d="M1972.5 520.532C2013.7 516.132 2045 491.366 2055.5 479.532L2013.5 492.532L2006 498.032C1992.8 510.832 1954.5 518.366 1937 520.532C1950.6 521.732 1966.33 521.032 1972.5 520.532Z" fill="#8E5555"/>
<path d="M1934.5 242.53C1932.5 222.53 1899.67 188.863 1883.5 174.53H1890.5C1910.1 192.13 1928 195.863 1934.5 195.53C1954.5 195.53 1962.5 188.62 1982 181.532C1985.5 180.26 2027 167.533 2063.5 173.032C2068.16 173.735 2075 176.532 2080.5 174.53C2082 179.533 2078.5 194.53 2075.5 202.03H1999.5C1947.9 205.63 1934.67 230.53 1934.5 242.53Z" fill="#77100F"/>
<path d="M1970.5 86.0322H1937.5C1933.1 94.8322 1926.33 101.532 1923.5 104.032L1978.5 101.532C2025.74 101.532 2058.89 124.032 2075 145.532C2055 106.032 1999.5 88.0322 1970.5 86.0322Z" fill="#BF2C1B"/>
<path d="M1918.5 18.0322L1909 24.0322C1910.85 31.7969 1909.99 36.7419 1909.19 38.6303C1909.13 38.7627 1909.06 38.8966 1909 39.0322C1909.06 38.9188 1909.13 38.7847 1909.19 38.6303C1912.75 31.3414 1916.86 28.8596 1918.5 28.5322C1928.5 32.1322 1937 52.6989 1940 62.5322C1941.2 40.1322 1926.17 23.5322 1918.5 18.0322Z" fill="#8E5555"/>
<path d="M1796 113.032C1838 128.232 1856.5 143.516 1868.5 155.032L1860 137.032C1842 118.549 1838.5 117.032 1819 105.032C1801.5 107.532 1796 109.032 1774 111.032L1771 113.032H1796Z" fill="#BF2C1B"/>
<path d="M1829 127.032C1848.5 137.032 1862.17 148.865 1868.5 155.031L1860 137.031C1856.8 133.031 1851.33 128.031 1849 126.031C1844.6 126.431 1833.17 126.532 1829 127.032Z" fill="#8E5555"/>
<path d="M1903 317.032C1884.2 297.432 1873.83 263.199 1871 248.532V317.032V385.532C1880.6 347.532 1896.33 324.032 1903 317.032Z" fill="#77100F"/>
<path d="M1903 317.032C1884 341.532 1875.5 370.032 1871 385.532V317.032H1903Z" fill="#BF2C1B"/>
<path d="M1224 128.032V127.032C1236.5 110.532 1281 101.366 1298 98.5322L1365.5 61.5322C1430.3 86.7322 1642.83 103.032 1741 108.032V110.532H1298C1252.4 112.532 1229.67 123.032 1224 128.032Z" fill="#77100F"/>
<path d="M1615 95.5322C1651.4 92.3322 1676.83 81.1989 1685 76.0322C1590.2 64.0322 1542.5 53.0322 1530.5 49.0322C1499.3 60.2322 1430.83 64.3656 1400.5 65.0322C1448.9 79.0322 1563.67 91.1989 1615 95.5322Z" fill="#8E5555"/>
<path d="M1243.5 73.5322L1364.5 4.53223L1375.5 9.03223L1382.5 15.0322L1366 10.5322L1364.5 15.0322V32.0322C1328.5 35.6322 1268.83 68.3656 1243.5 81.5322L1202.5 91.0322C1180.5 81.8322 1132 78.5322 1110.5 78.0322C1103.7 61.6322 1074.33 52.5322 1060.5 50.0322C1134.9 51.6322 1186.17 69.3656 1202.5 78.0322L1243.5 73.5322Z" fill="#BF2C1B"/>
<path d="M1223 115.033C1221 102.633 1214.83 92.1995 1212 88.5328C1204.83 87.0328 1192.9 85.4328 1202.5 91.0328C1212.1 96.6328 1220.17 109.366 1223 115.033Z" fill="#BF2C1B"/>
<path d="M1116 114.532H1044V91.5322C1088.8 91.5322 1110.67 106.866 1116 114.532Z" fill="#8E5555"/>
<path d="M1074.5 546.032L1055.5 520.532H1085L1142 552.532L1074.5 546.032Z" fill="#8E5555"/>
<rect x="256" y="146.032" width="1573" height="350" rx="67" fill="#B31A18"/>
</g>
<defs>
<filter id="filter0_d_60_87" x="0" y="0" width="2115" height="640.032" filterUnits="userSpaceOnUse" color-interpolation-filters="sRGB">
<feFlood flood-opacity="0" result="BackgroundImageFix"/>
<feColorMatrix in="SourceAlpha" type="matrix" values="0 0 0 0 0 0 0 0 0 0 0 0 0 0 0 0 0 0 127 0" result="hardAlpha"/>
<feOffset dx="27" dy="5"/>
<feGaussianBlur stdDeviation="2"/>
<feComposite in2="hardAlpha" operator="out"/>
<feColorMatrix type="matrix" values="0 0 0 0 0.927885 0 0 0 0 0.86097 0 0 0 0 0.86097 0 0 0 0.25 0"/>
<feBlend mode="normal" in2="BackgroundImageFix" result="effect1_dropShadow_60_87"/>
<feBlend mode="normal" in="SourceGraphic" in2="effect1_dropShadow_60_87" result="shape"/>
</filter>
</defs>
</svg>
