<svg width="104" height="104" viewBox="0 0 104 104" fill="none" xmlns="http://www.w3.org/2000/svg">
<circle cx="52" cy="52" r="50" fill="#EE3050"/>
<circle cx="52" cy="52" r="51" stroke="#D4014E" stroke-opacity="0.4" stroke-width="2"/>
<path d="M84.5908 69.1572C84.5908 70.5635 84.3418 72.0723 83.8438 73.6836C83.375 75.2949 82.584 76.7891 81.4707 78.166C80.3867 79.543 78.9658 80.7002 77.208 81.6377C75.4502 82.5459 73.2969 83 70.748 83H27.374C26.5537 83 25.792 82.8535 25.0889 82.5605C24.3857 82.2676 23.7705 81.8721 23.2432 81.374C22.7451 80.8467 22.3496 80.2314 22.0566 79.5283C21.7637 78.8252 21.6172 78.0635 21.6172 77.2432V25.7393C21.6172 24.9482 21.7637 24.2012 22.0566 23.498C22.3496 22.7949 22.7451 22.1797 23.2432 21.6523C23.7705 21.125 24.3857 20.7148 25.0889 20.4219C25.792 20.1289 26.5537 19.9824 27.374 19.9824H65.6064C67.0127 19.9824 68.5215 20.2314 70.1328 20.7295C71.7441 21.2275 73.2383 22.0332 74.6152 23.1465C76.0215 24.2305 77.1787 25.6514 78.0869 27.4092C79.0244 29.167 79.4932 31.3203 79.4932 33.8691V36.0225C79.4932 38.0439 79.1562 40.2266 78.4824 42.5703C77.8086 44.8848 76.7246 47.082 75.2305 49.1621C76.5195 49.9531 77.7207 50.9053 78.834 52.0186C79.9766 53.1318 80.9727 54.4209 81.8223 55.8857C82.6719 57.3506 83.3457 59.0059 83.8438 60.8516C84.3418 62.6973 84.5908 64.7334 84.5908 66.96V69.1572ZM73.165 66.96C73.165 65.4658 72.9307 64.1328 72.4619 62.9609C71.9932 61.7598 71.334 60.7344 70.4844 59.8848C69.6348 59.0352 68.6094 58.3906 67.4082 57.9512C66.207 57.4824 64.8594 57.248 63.3652 57.248H37.6133V45.7344H58.2236C59.7178 45.7344 61.0654 45.5146 62.2666 45.0752C63.4678 44.6064 64.4932 43.9473 65.3428 43.0977C66.1924 42.248 66.8369 41.2373 67.2764 40.0654C67.7451 38.8643 67.9795 37.5166 67.9795 36.0225V33.8691C67.9795 32.2285 67.1885 31.4082 65.6064 31.4082H33.043V71.5742H70.748C70.9531 71.5742 71.2021 71.5596 71.4951 71.5303C71.7881 71.501 72.0518 71.4131 72.2861 71.2666C72.5205 71.1201 72.7256 70.8711 72.9014 70.5195C73.0771 70.168 73.165 69.6846 73.165 69.0693V66.96Z" fill="#300E16"/>
</svg>
