<svg width="688" height="510" viewBox="0 0 688 510" fill="none" xmlns="http://www.w3.org/2000/svg">
<path d="M34 297.729L33.7744 297.582L3.5 277.729V3.5H417.773L431.624 19.3291L431.773 19.5H616.793L631.007 33.7139L614.389 37.5127L614.231 37.5488L614.125 37.6699L603.125 50.1699L602.843 50.4902L603.114 50.8184L612.614 62.3184L612.802 62.5449L613.091 62.4912L625.919 60.1152L624.004 75.4375L623.97 75.707L624.178 75.8828L633.678 83.8828L633.945 84.1074L634.248 83.9346L648.248 75.9346L648.43 75.8301L648.483 75.6289L653.5 56.8164V212.272L653.729 212.42L684.5 232.272V506.5H271.217L256.365 490.658L256.217 490.5H77.6602L57.1582 475.719L77.624 470.484L77.8213 470.434L77.9268 470.26L84.9268 458.76L85.1211 458.441L84.8711 458.164L75.3711 447.664L75.1982 447.474L74.9424 447.503L62.5 448.938V431.179L62.208 431.046L50.208 425.546L49.8896 425.399L49.6436 425.649L34 441.529V297.729Z" fill="url(#paint0_linear_71_37)" fill-opacity="0.8" stroke="#B766FF"/>
<path d="M299.5 19H385.499L399.004 34.2624H632C586 38.5 607.5 73.5 627.5 59C615 89 650.5 95.5 654.373 53V212L685 232V441M669.5 368.5V3H440.999M654.373 19H432.999M408.55 19H432.999M432.999 19L418 3H247" stroke="#F9D797" stroke-width="5" stroke-miterlimit="1.00244" stroke-linecap="round" stroke-linejoin="round"/>
<path d="M388.5 491H302.501L288.996 475.738H56C102 471.5 80.5 436.5 60.5 451C73 421 37.5 414.5 33.627 457V298L3 278V69M18.5 141.5V507H247.001M33.627 491H255.001M279.45 491H255.001M255.001 491L270 507H441" stroke="#F9D797" stroke-width="5" stroke-miterlimit="1.00244" stroke-linecap="round" stroke-linejoin="round"/>
<path d="M299.5 19H385.499L399.004 34.2624H632C586 38.5 607.5 73.5 627.5 59C615 89 650.5 95.5 654.373 53V212L685 232V441M669.5 368.5V3H440.999M654.373 19H432.999M408.55 19H432.999M432.999 19L418 3H247" stroke="#FFF6E5" stroke-miterlimit="1.00244" stroke-linecap="round" stroke-linejoin="round"/>
<path d="M388.5 491H302.501L288.996 475.738H56C102 471.5 80.5 436.5 60.5 451C73 421 37.5 414.5 33.627 457V298L3 278V69M18.5 141.5V507H247.001M33.627 491H255.001M279.45 491H255.001M255.001 491L270 507H441" stroke="#FFF6E5" stroke-miterlimit="1.00244" stroke-linecap="round" stroke-linejoin="round"/>
<defs>
<linearGradient id="paint0_linear_71_37" x1="-6.99993" y1="-7.00004" x2="435.342" y2="698.9" gradientUnits="userSpaceOnUse">
<stop stop-color="#8849D7"/>
<stop offset="1" stop-color="#954FDE"/>
</linearGradient>
</defs>
</svg>
