<svg width="1920" height="1096" viewBox="0 0 1920 1096" fill="none" xmlns="http://www.w3.org/2000/svg">
<g filter="url(#filter0_ii_83_4)">
<rect y="14" width="1920" height="1080" fill="url(#paint0_linear_83_4)"/>
</g>
<rect width="208" height="937" transform="matrix(1 0 0 -1 93 1094)" fill="url(#paint1_linear_83_4)" fill-opacity="0.8"/>
<rect width="231" height="355" transform="matrix(1 0 0 -1 1286 1096)" fill="url(#paint2_linear_83_4)" fill-opacity="0.8"/>
<rect width="247" height="706" transform="matrix(1 0 0 -1 1636 1094)" fill="url(#paint3_linear_83_4)" fill-opacity="0.8"/>
<g filter="url(#filter1_d_83_4)">
<path d="M0 828L452.036 895.141L542 1094H0V828Z" fill="#818AB8" fill-opacity="0.1" shape-rendering="crispEdges"/>
</g>
<g filter="url(#filter2_d_83_4)">
<path d="M1654 1094L1723 695.5L1920 583.5V1094H1654Z" fill="#818AB8" fill-opacity="0.1" shape-rendering="crispEdges"/>
</g>
<path d="M1524.5 1068H1610.5L1624 1052.74H1857C1811 1048.5 1832.5 1013.5 1852.5 1028C1840 998 1875.5 991.5 1879.37 1034V875L1910 855V646M1894.5 718.5V1084H1666M1879.37 1068H1658M1633.55 1068H1658M1658 1068L1643 1084H1472" stroke="#7A45D7" stroke-width="5" stroke-miterlimit="1.00244" stroke-linecap="round" stroke-linejoin="round"/>
<path d="M395.5 1068H309.501L295.996 1052.74H63C109 1048.5 87.5 1013.5 67.5 1028C80 998 44.5 991.5 40.627 1034V875L10 855V646M25.5 718.5V1084H254.001M40.627 1068H262.001M286.45 1068H262.001M262.001 1068L277 1084H448" stroke="#7A45D7" stroke-width="5" stroke-miterlimit="1.00244" stroke-linecap="round" stroke-linejoin="round"/>
<g filter="url(#filter3_f_83_4)">
<path d="M773.697 194.746H734.527V275H716.754V194.746H677.516V176.973H773.697V194.746ZM884.781 209.922C884.781 213.978 884.28 217.601 883.277 220.791C882.275 223.981 880.908 226.807 879.176 229.268C877.49 231.683 875.53 233.757 873.297 235.488C871.064 237.22 868.717 238.656 866.256 239.795C863.84 240.889 861.38 241.686 858.873 242.188C856.412 242.689 854.088 242.939 851.9 242.939L889.02 275H861.539L824.488 242.939H811.705V225.166H851.9C854.133 224.984 856.161 224.528 857.984 223.799C859.853 223.024 861.448 221.999 862.77 220.723C864.137 219.447 865.185 217.92 865.914 216.143C866.643 214.32 867.008 212.246 867.008 209.922V198.711C867.008 197.708 866.871 196.956 866.598 196.455C866.37 195.908 866.051 195.521 865.641 195.293C865.276 195.02 864.866 194.86 864.41 194.814C864 194.769 863.613 194.746 863.248 194.746H804.596V275H786.822V185.928C786.822 184.697 787.05 183.535 787.506 182.441C787.962 181.348 788.577 180.391 789.352 179.57C790.172 178.75 791.129 178.112 792.223 177.656C793.316 177.201 794.501 176.973 795.777 176.973H863.248C867.213 176.973 870.562 177.702 873.297 179.16C876.031 180.573 878.242 182.373 879.928 184.561C881.66 186.702 882.89 189.027 883.619 191.533C884.394 194.04 884.781 196.387 884.781 198.574V209.922ZM920.533 275H902.76V176.973H920.533V275ZM1039.27 267.412C1039.27 268.688 1039.02 269.873 1038.52 270.967C1038.07 272.061 1037.43 273.018 1036.61 273.838C1035.83 274.613 1034.9 275.228 1033.8 275.684C1032.71 276.139 1031.55 276.367 1030.32 276.367C1029.22 276.367 1028.11 276.162 1026.97 275.752C1025.88 275.342 1024.9 274.681 1024.03 273.77L959.088 205.957V275H941.314V184.561C941.314 182.738 941.816 181.097 942.818 179.639C943.867 178.135 945.188 177.018 946.783 176.289C948.469 175.605 950.201 175.446 951.979 175.811C953.756 176.13 955.283 176.95 956.559 178.271L1021.5 246.016V176.973H1039.27V267.412ZM1077.9 275H1060.12V176.973H1077.9V275ZM1187.27 194.746H1148.1V275H1130.33V194.746H1091.09V176.973H1187.27V194.746ZM1293.78 209.785C1293.78 213.841 1293.25 217.464 1292.2 220.654C1291.2 223.844 1289.86 226.67 1288.17 229.131C1286.48 231.546 1284.5 233.62 1282.22 235.352C1279.99 237.083 1277.67 238.519 1275.25 239.658C1272.83 240.752 1270.37 241.549 1267.87 242.051C1265.41 242.552 1263.08 242.803 1260.89 242.803H1253.72V275H1235.81V242.803H1228.7C1226.51 242.803 1224.16 242.552 1221.66 242.051C1219.2 241.549 1216.73 240.752 1214.27 239.658C1211.86 238.519 1209.53 237.083 1207.3 235.352C1205.07 233.62 1203.09 231.546 1201.35 229.131C1199.67 226.67 1198.3 223.844 1197.25 220.654C1196.25 217.419 1195.75 213.796 1195.75 209.785V176.973H1213.52V209.785C1213.52 212.109 1213.89 214.206 1214.62 216.074C1215.34 217.897 1216.37 219.469 1217.69 220.791C1219.01 222.113 1220.61 223.138 1222.48 223.867C1224.39 224.551 1226.51 224.893 1228.83 224.893H1260.89C1262.58 224.619 1264.31 224.277 1266.09 223.867C1267.87 223.411 1269.49 222.66 1270.94 221.611C1272.4 220.563 1273.61 219.105 1274.57 217.236C1275.52 215.368 1276 212.884 1276 209.785V176.973H1293.78V209.785ZM713.541 368.988C713.541 373.044 713.04 376.667 712.037 379.857C711.035 383.048 709.667 385.873 707.936 388.334C706.249 390.749 704.29 392.823 702.057 394.555C699.824 396.286 697.477 397.699 695.016 398.793C692.6 399.887 690.139 400.684 687.633 401.186C685.172 401.687 682.848 401.938 680.66 401.938H640.465V384.164H680.66C682.939 383.982 684.99 383.526 686.812 382.797C688.681 382.022 690.276 380.997 691.598 379.721C692.919 378.445 693.945 376.918 694.674 375.141C695.403 373.318 695.768 371.267 695.768 368.988V360.922C695.54 358.689 695.061 356.638 694.332 354.77C693.603 352.901 692.6 351.306 691.324 349.984C690.094 348.663 688.59 347.637 686.812 346.908C685.035 346.133 682.984 345.746 680.66 345.746H640.602C638.232 345.746 636.432 346.361 635.201 347.592C633.971 348.822 633.355 350.6 633.355 352.924V426H615.582V352.924C615.582 348.367 616.402 344.493 618.043 341.303C619.729 338.113 621.803 335.538 624.264 333.578C626.77 331.618 629.482 330.206 632.398 329.34C635.315 328.428 638.004 327.973 640.465 327.973H680.66C684.671 327.973 688.271 328.497 691.461 329.545C694.651 330.548 697.454 331.915 699.869 333.646C702.33 335.333 704.404 337.292 706.09 339.525C707.822 341.758 709.234 344.105 710.328 346.566C711.467 348.982 712.288 351.443 712.789 353.949C713.29 356.41 713.541 358.734 713.541 360.922V368.988ZM826.744 360.922C826.744 364.978 826.243 368.601 825.24 371.791C824.238 374.981 822.87 377.807 821.139 380.268C819.452 382.683 817.493 384.757 815.26 386.488C813.027 388.22 810.68 389.656 808.219 390.795C805.803 391.889 803.342 392.686 800.836 393.188C798.375 393.689 796.051 393.939 793.863 393.939L830.982 426H803.502L766.451 393.939H753.668V376.166H793.863C796.096 375.984 798.124 375.528 799.947 374.799C801.816 374.024 803.411 372.999 804.732 371.723C806.1 370.447 807.148 368.92 807.877 367.143C808.606 365.32 808.971 363.246 808.971 360.922V349.711C808.971 348.708 808.834 347.956 808.561 347.455C808.333 346.908 808.014 346.521 807.604 346.293C807.239 346.02 806.829 345.86 806.373 345.814C805.963 345.769 805.576 345.746 805.211 345.746H746.559V426H728.785V336.928C728.785 335.697 729.013 334.535 729.469 333.441C729.924 332.348 730.54 331.391 731.314 330.57C732.135 329.75 733.092 329.112 734.186 328.656C735.279 328.201 736.464 327.973 737.74 327.973H805.211C809.176 327.973 812.525 328.702 815.26 330.16C817.994 331.573 820.204 333.373 821.891 335.561C823.622 337.702 824.853 340.027 825.582 342.533C826.357 345.04 826.744 347.387 826.744 349.574V360.922ZM947.467 386.352C947.467 392.322 946.441 397.813 944.391 402.826C942.34 407.839 939.492 412.169 935.846 415.814C932.2 419.46 927.87 422.309 922.857 424.359C917.89 426.365 912.467 427.367 906.588 427.367H882.525C876.646 427.367 871.201 426.365 866.188 424.359C861.174 422.309 856.845 419.46 853.199 415.814C849.553 412.169 846.682 407.839 844.586 402.826C842.535 397.813 841.51 392.322 841.51 386.352V367.621C841.51 361.697 842.535 356.228 844.586 351.215C846.682 346.156 849.553 341.827 853.199 338.227C856.845 334.581 861.174 331.732 866.188 329.682C871.201 327.631 876.646 326.605 882.525 326.605H906.588C912.467 326.605 917.89 327.631 922.857 329.682C927.87 331.732 932.2 334.581 935.846 338.227C939.492 341.827 942.34 346.156 944.391 351.215C946.441 356.228 947.467 361.697 947.467 367.621V386.352ZM929.693 367.621C929.693 364.112 929.124 360.945 927.984 358.119C926.891 355.248 925.318 352.81 923.268 350.805C921.262 348.754 918.824 347.182 915.953 346.088C913.128 344.949 910.006 344.379 906.588 344.379H882.525C879.062 344.379 875.895 344.949 873.023 346.088C870.198 347.182 867.76 348.754 865.709 350.805C863.658 352.81 862.063 355.248 860.924 358.119C859.83 360.945 859.283 364.112 859.283 367.621V386.352C859.283 389.861 859.83 393.051 860.924 395.922C862.063 398.747 863.658 401.186 865.709 403.236C867.76 405.242 870.198 406.814 873.023 407.953C875.895 409.047 879.062 409.594 882.525 409.594H906.451C909.915 409.594 913.059 409.047 915.885 407.953C918.756 406.814 921.217 405.242 923.268 403.236C925.318 401.186 926.891 398.747 927.984 395.922C929.124 393.051 929.693 389.861 929.693 386.352V367.621ZM1045.97 401.049C1045.97 404.604 1045.36 407.908 1044.13 410.961C1042.9 414.014 1041.16 416.658 1038.93 418.891C1036.74 421.124 1034.12 422.878 1031.07 424.154C1028.02 425.385 1024.69 426 1021.09 426H955.943V408.227H1021.09C1023.28 408.227 1024.99 407.611 1026.22 406.381C1027.45 405.105 1028.06 403.327 1028.06 401.049V327.973H1045.97V401.049ZM1146.94 385.941H1090.82V368.031H1146.94V385.941ZM1154.94 426H1090.82C1088.36 426 1085.67 425.567 1082.75 424.701C1079.83 423.835 1077.12 422.423 1074.62 420.463C1072.15 418.458 1070.08 415.883 1068.39 412.738C1066.75 409.548 1065.93 405.652 1065.93 401.049V336.928C1065.93 335.697 1066.16 334.535 1066.62 333.441C1067.07 332.348 1067.69 331.391 1068.46 330.57C1069.28 329.75 1070.24 329.112 1071.33 328.656C1072.43 328.201 1073.61 327.973 1074.89 327.973H1154.94V345.746H1083.71V401.049C1083.71 403.373 1084.32 405.15 1085.55 406.381C1086.78 407.611 1088.58 408.227 1090.95 408.227H1154.94V426ZM1259.25 426H1195.13C1193.49 426 1191.71 425.818 1189.8 425.453C1187.93 425.043 1186.06 424.428 1184.2 423.607C1182.37 422.787 1180.62 421.739 1178.93 420.463C1177.25 419.141 1175.74 417.569 1174.42 415.746C1173.14 413.878 1172.12 411.736 1171.34 409.32C1170.57 406.859 1170.18 404.102 1170.18 401.049V352.924C1170.18 351.283 1170.36 349.529 1170.73 347.66C1171.14 345.746 1171.75 343.878 1172.57 342.055C1173.39 340.186 1174.47 338.409 1175.79 336.723C1177.11 335.036 1178.68 333.555 1180.5 332.279C1182.37 330.958 1184.51 329.91 1186.93 329.135C1189.35 328.36 1192.08 327.973 1195.13 327.973H1259.25V345.746H1195.13C1192.81 345.746 1191.03 346.361 1189.8 347.592C1188.57 348.822 1187.96 350.645 1187.96 353.061V401.049C1187.96 403.327 1188.57 405.105 1189.8 406.381C1191.08 407.611 1192.85 408.227 1195.13 408.227H1259.25V426ZM1364.66 345.746H1325.49V426H1307.72V345.746H1268.48V327.973H1364.66V345.746Z" fill="#6B127D"/>
</g>
<rect width="609" height="134" transform="matrix(-1 0 0 1 1264 714)" fill="#232C52" fill-opacity="0.2"/>
<rect width="518" height="106" transform="matrix(-1 0 0 1 1219 879)" fill="#232C52" fill-opacity="0.2"/>
<path d="M554.5 595.251L418.56 595.251" stroke="#C4B1EA" stroke-width="8" stroke-linecap="round"/>
<path d="M431.406 617.5L418.56 595.25L405.714 573H264" stroke="#C4B1EA" stroke-width="8" stroke-linecap="round"/>
<path d="M391 595H135" stroke="#C4B1EA" stroke-width="8" stroke-linecap="round"/>
<path d="M1368 595.251L1503.94 595.251" stroke="#C4B1EA" stroke-width="8" stroke-linecap="round"/>
<path d="M1491.09 617.5L1503.94 595.25L1516.79 573H1658.5" stroke="#C4B1EA" stroke-width="8" stroke-linecap="round"/>
<path d="M1531.5 595H1787.5" stroke="#C4B1EA" stroke-width="8" stroke-linecap="round"/>
<path d="M251.5 29.5C252.881 29.5 254 30.6193 254 32C254 33.3807 252.881 34.5 251.5 34.5V32V29.5ZM121.5 56.5L123.268 58.2678L122.536 59H121.5V56.5ZM19 56.5H16.5V54H19L19 56.5ZM46.5 105.5L47.4285 103.179C48.3776 103.558 49 104.478 49 105.5H46.5ZM19 177.5C17.6193 177.5 16.5 176.381 16.5 175C16.5 173.619 17.6193 172.5 19 172.5V175L19 177.5ZM75.5 34.5C74.1193 34.5 73 33.3807 73 32C73 30.6193 74.1193 29.5 75.5 29.5V32V34.5ZM21.5 128C21.5 129.381 20.3807 130.5 19 130.5C17.6193 130.5 16.5 129.381 16.5 128H19H21.5ZM251.5 32V34.5L146 34.5V32V29.5L251.5 29.5V32ZM146 32L147.768 33.7678L123.268 58.2678L121.5 56.5L119.732 54.7322L144.232 30.2322L146 32ZM121.5 56.5V59L19 59V56.5L19 54L121.5 54V56.5ZM19 94.5L19.9285 92.1788L47.4285 103.179L46.5 105.5L45.5715 107.821L18.0715 96.8212L19 94.5ZM46.5 105.5H49L49 137.5H46.5H44L44 105.5H46.5ZM46.5 137.5H49C49 143.838 47.3055 153.635 42.8251 161.937C38.3137 170.297 30.7364 177.5 19 177.5L19 175V172.5C28.2636 172.5 34.4363 166.953 38.4249 159.563C42.4445 152.115 44 143.162 44 137.5H46.5ZM146 32V34.5L75.5 34.5V32V29.5L146 29.5V32ZM19 94.5H21.5L21.5 128H19H16.5L16.5 94.5H19ZM19 56.5H21.5L21.5 94.5H19H16.5L16.5 56.5H19Z" fill="#D09A4D"/>
<path d="M1672 29.5C1670.62 29.5 1669.5 30.6193 1669.5 32C1669.5 33.3807 1670.62 34.5 1672 34.5V32V29.5ZM1802 56.5L1800.23 58.2678L1800.96 59H1802V56.5ZM1904.5 56.5H1907V54H1904.5V56.5ZM1877 105.5L1876.07 103.179C1875.12 103.558 1874.5 104.478 1874.5 105.5H1877ZM1904.5 177.5C1905.88 177.5 1907 176.381 1907 175C1907 173.619 1905.88 172.5 1904.5 172.5V175V177.5ZM1848 34.5C1849.38 34.5 1850.5 33.3807 1850.5 32C1850.5 30.6193 1849.38 29.5 1848 29.5V32V34.5ZM1902 128C1902 129.381 1903.12 130.5 1904.5 130.5C1905.88 130.5 1907 129.381 1907 128H1904.5H1902ZM1672 32V34.5L1777.5 34.5V32V29.5L1672 29.5V32ZM1777.5 32L1775.73 33.7678L1800.23 58.2678L1802 56.5L1803.77 54.7322L1779.27 30.2322L1777.5 32ZM1802 56.5V59L1904.5 59V56.5V54L1802 54V56.5ZM1904.5 94.5L1903.57 92.1788L1876.07 103.179L1877 105.5L1877.93 107.821L1905.43 96.8212L1904.5 94.5ZM1877 105.5H1874.5V137.5H1877H1879.5V105.5H1877ZM1877 137.5H1874.5C1874.5 143.838 1876.19 153.635 1880.67 161.937C1885.19 170.297 1892.76 177.5 1904.5 177.5V175V172.5C1895.24 172.5 1889.06 166.953 1885.08 159.563C1881.06 152.115 1879.5 143.162 1879.5 137.5H1877ZM1777.5 32V34.5L1848 34.5V32V29.5L1777.5 29.5V32ZM1904.5 94.5H1902V128H1904.5H1907V94.5H1904.5ZM1904.5 56.5H1902V94.5H1904.5H1907V56.5H1904.5Z" fill="#D09A4D"/>
<path d="M251.5 30.5C252.328 30.5 253 31.1716 253 32C253 32.8284 252.328 33.5 251.5 33.5V32V30.5ZM121.5 56.5L122.561 57.5607L122.121 58H121.5V56.5ZM19 56.5H17.5V55H19V56.5ZM46.5 105.5L47.0571 104.107C47.6266 104.335 48 104.887 48 105.5H46.5ZM19 176.5C18.1716 176.5 17.5 175.828 17.5 175C17.5 174.172 18.1716 173.5 19 173.5V175L19 176.5ZM75.5 33.5C74.6716 33.5 74 32.8284 74 32C74 31.1716 74.6716 30.5 75.5 30.5V32V33.5ZM20.5 128C20.5 128.828 19.8284 129.5 19 129.5C18.1716 129.5 17.5 128.828 17.5 128H19H20.5ZM251.5 32V33.5L146 33.5V32V30.5L251.5 30.5V32ZM146 32L147.061 33.0607L122.561 57.5607L121.5 56.5L120.439 55.4393L144.939 30.9393L146 32ZM121.5 56.5V58L19 58V56.5V55L121.5 55V56.5ZM19 94.5L19.5571 93.1073L47.0571 104.107L46.5 105.5L45.9429 106.893L18.4429 95.8927L19 94.5ZM46.5 105.5H48L48 137.5H46.5H45L45 105.5H46.5ZM46.5 137.5H48C48 143.703 46.3333 153.331 41.945 161.462C37.5382 169.628 30.2419 176.5 19 176.5L19 175V173.5C28.7581 173.5 35.2118 167.622 39.305 160.038C43.4167 152.419 45 143.297 45 137.5H46.5ZM146 32V33.5L75.5 33.5V32V30.5L146 30.5V32ZM19 94.5H20.5L20.5 128H19H17.5L17.5 94.5H19ZM19 56.5H20.5L20.5 94.5H19H17.5L17.5 56.5H19Z" fill="#F9EBD3" fill-opacity="0.4"/>
<path d="M1672 30.5C1671.17 30.5 1670.5 31.1716 1670.5 32C1670.5 32.8284 1671.17 33.5 1672 33.5V32V30.5ZM1802 56.5L1800.94 57.5607L1801.38 58H1802V56.5ZM1904.5 56.5H1906V55H1904.5V56.5ZM1877 105.5L1876.44 104.107C1875.87 104.335 1875.5 104.887 1875.5 105.5H1877ZM1904.5 176.5C1905.33 176.5 1906 175.828 1906 175C1906 174.172 1905.33 173.5 1904.5 173.5V175V176.5ZM1848 33.5C1848.83 33.5 1849.5 32.8284 1849.5 32C1849.5 31.1716 1848.83 30.5 1848 30.5V32V33.5ZM1903 128C1903 128.828 1903.67 129.5 1904.5 129.5C1905.33 129.5 1906 128.828 1906 128H1904.5H1903ZM1672 32V33.5L1777.5 33.5V32V30.5L1672 30.5V32ZM1777.5 32L1776.44 33.0607L1800.94 57.5607L1802 56.5L1803.06 55.4393L1778.56 30.9393L1777.5 32ZM1802 56.5V58L1904.5 58V56.5V55L1802 55V56.5ZM1904.5 94.5L1903.94 93.1073L1876.44 104.107L1877 105.5L1877.56 106.893L1905.06 95.8927L1904.5 94.5ZM1877 105.5H1875.5V137.5H1877H1878.5V105.5H1877ZM1877 137.5H1875.5C1875.5 143.703 1877.17 153.331 1881.55 161.462C1885.96 169.628 1893.26 176.5 1904.5 176.5V175V173.5C1894.74 173.5 1888.29 167.622 1884.2 160.038C1880.08 152.419 1878.5 143.297 1878.5 137.5H1877ZM1777.5 32V33.5L1848 33.5V32V30.5L1777.5 30.5V32ZM1904.5 94.5H1903V128H1904.5H1906V94.5H1904.5ZM1904.5 56.5H1903V94.5H1904.5H1906V56.5H1904.5Z" fill="#F9EBD3" fill-opacity="0.4"/>
<g filter="url(#filter4_f_83_4)">
<path d="M486.112 169.929C494.528 156.438 510.628 152.011 528.756 154.152C546.994 156.305 568.233 165.138 588.617 179.559C609.001 193.979 625.055 211.531 634.171 228.716C643.22 245.775 645.862 263.451 637.425 276.977C629.036 290.426 612.575 295.331 594.059 293.658C575.403 291.971 553.718 283.596 533.273 269.132C512.829 254.669 497.174 236.627 488.483 218.967C479.857 201.439 477.723 183.378 486.112 169.929Z" stroke="#26094A" stroke-width="8"/>
<ellipse cx="32.9145" cy="42.9278" rx="32.9145" ry="42.9278" transform="matrix(0.529263 -0.848458 0.816358 0.577546 518.638 217.833)" stroke="#F0EEFF" stroke-width="8"/>
<path d="M522.572 216.319C489.189 214.6 501.573 180.714 520.957 188.755C510.188 162.336 535.495 158.315 546.264 184.733C549.71 192.084 549.075 206.366 549.075 212.493C542.183 216.628 529.572 216.894 522.572 216.319Z" stroke="#D09A4D" stroke-width="8" stroke-miterlimit="16" stroke-linecap="round"/>
<path d="M576.109 176.445C569.662 194.851 560.671 205.697 557.751 207.117C556.227 203.563 556.293 189.54 562.741 171.134C569.188 152.728 578.178 141.882 581.099 140.462C582.432 143.571 582.557 158.038 576.109 176.445Z" stroke="#D09A4D" stroke-width="8"/>
</g>
<g filter="url(#filter5_f_83_4)">
<path d="M1486.15 163.929C1477.73 150.438 1461.63 146.011 1443.5 148.152C1425.27 150.305 1404.03 159.138 1383.64 173.559C1363.26 187.979 1347.21 205.531 1338.09 222.716C1329.04 239.775 1326.4 257.451 1334.84 270.977C1343.22 284.426 1359.69 289.331 1378.2 287.658C1396.86 285.971 1418.54 277.596 1438.99 263.132C1459.43 248.669 1475.09 230.627 1483.78 212.967C1492.4 195.439 1494.54 177.378 1486.15 163.929Z" stroke="#26094A" stroke-width="8"/>
<ellipse cx="32.9145" cy="42.9278" rx="32.9145" ry="42.9278" transform="matrix(-0.529263 -0.848458 -0.816358 0.577546 1453.62 211.833)" stroke="#F0EEFF" stroke-width="8"/>
<path d="M1449.69 210.319C1483.07 208.6 1470.69 174.714 1451.3 182.755C1462.07 156.336 1436.76 152.315 1426 178.733C1422.55 186.084 1423.18 200.366 1423.18 206.493C1430.08 210.628 1442.69 210.894 1449.69 210.319Z" stroke="#D09A4D" stroke-width="8" stroke-miterlimit="16" stroke-linecap="round"/>
<path d="M1396.15 170.445C1402.6 188.851 1411.59 199.697 1414.51 201.117C1416.03 197.563 1415.97 183.54 1409.52 165.134C1403.07 146.728 1394.08 135.882 1391.16 134.462C1389.83 137.571 1389.7 152.038 1396.15 170.445Z" stroke="#D09A4D" stroke-width="8"/>
</g>
<g filter="url(#filter6_dd_83_4)">
<path d="M486.112 169.929C494.528 156.438 510.628 152.011 528.756 154.152C546.994 156.305 568.233 165.138 588.617 179.559C609.001 193.979 625.055 211.531 634.171 228.716C643.22 245.775 645.862 263.451 637.425 276.977C629.036 290.426 612.575 295.331 594.059 293.658C575.403 291.971 553.718 283.596 533.273 269.132C512.829 254.669 497.174 236.627 488.483 218.967C479.857 201.439 477.723 183.378 486.112 169.929Z" stroke="#26094A" stroke-width="8"/>
<ellipse cx="32.9145" cy="42.9278" rx="32.9145" ry="42.9278" transform="matrix(0.529263 -0.848458 0.816358 0.577546 518.638 217.833)" stroke="#F0EEFF" stroke-width="8"/>
<path d="M522.572 216.319C489.189 214.6 501.573 180.714 520.957 188.755C510.188 162.336 535.495 158.315 546.264 184.733C549.71 192.084 549.075 206.366 549.075 212.493C542.183 216.628 529.572 216.894 522.572 216.319Z" stroke="#D09A4D" stroke-width="8" stroke-miterlimit="16" stroke-linecap="round"/>
<path d="M576.109 176.445C569.662 194.851 560.671 205.697 557.751 207.117C556.227 203.563 556.293 189.54 562.741 171.134C569.188 152.728 578.178 141.882 581.099 140.462C582.432 143.571 582.557 158.038 576.109 176.445Z" stroke="#D09A4D" stroke-width="8"/>
</g>
<g filter="url(#filter7_dd_83_4)">
<path d="M1486.15 163.929C1477.73 150.438 1461.63 146.011 1443.5 148.152C1425.27 150.305 1404.03 159.138 1383.64 173.559C1363.26 187.979 1347.21 205.531 1338.09 222.716C1329.04 239.775 1326.4 257.451 1334.84 270.977C1343.22 284.426 1359.69 289.331 1378.2 287.658C1396.86 285.971 1418.54 277.596 1438.99 263.132C1459.43 248.669 1475.09 230.627 1483.78 212.967C1492.4 195.439 1494.54 177.378 1486.15 163.929Z" stroke="#26094A" stroke-width="8"/>
<ellipse cx="32.9145" cy="42.9278" rx="32.9145" ry="42.9278" transform="matrix(-0.529263 -0.848458 -0.816358 0.577546 1453.62 211.833)" stroke="#F0EEFF" stroke-width="8"/>
<path d="M1449.69 210.319C1483.07 208.6 1470.69 174.714 1451.3 182.755C1462.07 156.336 1436.76 152.315 1426 178.733C1422.55 186.084 1423.18 200.366 1423.18 206.493C1430.08 210.628 1442.69 210.894 1449.69 210.319Z" stroke="#D09A4D" stroke-width="8" stroke-miterlimit="16" stroke-linecap="round"/>
<path d="M1396.15 170.445C1402.6 188.851 1411.59 199.697 1414.51 201.117C1416.03 197.563 1415.97 183.54 1409.52 165.134C1403.07 146.728 1394.08 135.882 1391.16 134.462C1389.83 137.571 1389.7 152.038 1396.15 170.445Z" stroke="#D09A4D" stroke-width="8"/>
</g>
<g filter="url(#filter8_f_83_4)">
<path d="M902.662 109.258C901.43 96.793 909.366 86.4523 921.333 79.2997C933.395 72.0901 950.327 67.5631 969.275 66.7943C988.223 66.0256 1006.07 69.1415 1019.62 75.3014C1033.03 81.4025 1043.16 91.0015 1044.4 103.507C1045.63 115.922 1037.71 126.713 1025.73 134.323C1013.64 142.01 996.647 147.024 977.625 147.796C958.603 148.568 940.758 144.967 927.246 138.319C913.868 131.737 903.889 121.673 902.662 109.258Z" stroke="#26094A" stroke-width="8"/>
<ellipse cx="24.8421" cy="32.3997" rx="24.8421" ry="32.3997" transform="matrix(-0.0983778 -0.995149 0.999178 -0.0405389 945.153 122.884)" stroke="#F0EEFF" stroke-width="8"/>
<path d="M946.589 84.7962C921.376 83.9068 930.307 58.1834 945.033 64.0143C936.584 44.2088 955.632 40.865 964.082 60.6699C966.773 66.1756 966.468 76.9612 966.543 81.5843C961.392 84.7892 951.879 85.144 946.589 84.7962Z" stroke="#D09A4D" stroke-width="8" stroke-miterlimit="16" stroke-linecap="round"/>
<path d="M1010.39 66.9458C999.939 77.3074 990.256 81.6981 987.805 81.6972C987.945 78.7819 992.621 69.2876 1003.08 58.9259C1013.53 48.5643 1023.22 44.1736 1025.67 44.1745C1025.54 46.7254 1020.85 56.5841 1010.39 66.9458Z" stroke="#D09A4D" stroke-width="8"/>
</g>
<g filter="url(#filter9_dd_83_4)">
<path d="M902.662 109.258C901.429 96.793 909.365 86.4523 921.332 79.2997C933.395 72.0901 950.326 67.5631 969.275 66.7943C988.222 66.0256 1006.07 69.1415 1019.62 75.3014C1033.03 81.4025 1043.16 91.0015 1044.4 103.507C1045.63 115.922 1037.71 126.713 1025.73 134.323C1013.64 142.01 996.647 147.024 977.625 147.796C958.603 148.568 940.758 144.967 927.246 138.319C913.867 131.737 903.889 121.673 902.662 109.258Z" stroke="#26094A" stroke-width="8"/>
<ellipse cx="24.8421" cy="32.3997" rx="24.8421" ry="32.3997" transform="matrix(-0.0983778 -0.995149 0.999178 -0.0405389 945.153 122.884)" stroke="#F0EEFF" stroke-width="8"/>
<path d="M946.589 84.7962C921.376 83.9068 930.307 58.1834 945.033 64.0143C936.584 44.2088 955.632 40.865 964.082 60.6699C966.773 66.1756 966.468 76.9612 966.543 81.5843C961.392 84.7892 951.879 85.144 946.589 84.7962Z" stroke="#D09A4D" stroke-width="8" stroke-miterlimit="16" stroke-linecap="round"/>
<path d="M1010.39 66.9458C999.939 77.3074 990.256 81.6981 987.805 81.6972C987.945 78.7819 992.621 69.2876 1003.08 58.9259C1013.53 48.5643 1023.22 44.1736 1025.67 44.1745C1025.54 46.7254 1020.85 56.5841 1010.39 66.9458Z" stroke="#D09A4D" stroke-width="8"/>
</g>
<defs>
<filter id="filter0_ii_83_4" x="-4" y="10" width="1928" height="1088" filterUnits="userSpaceOnUse" color-interpolation-filters="sRGB">
<feFlood flood-opacity="0" result="BackgroundImageFix"/>
<feBlend mode="normal" in="SourceGraphic" in2="BackgroundImageFix" result="shape"/>
<feColorMatrix in="SourceAlpha" type="matrix" values="0 0 0 0 0 0 0 0 0 0 0 0 0 0 0 0 0 0 127 0" result="hardAlpha"/>
<feOffset dx="-4" dy="-4"/>
<feGaussianBlur stdDeviation="2"/>
<feComposite in2="hardAlpha" operator="arithmetic" k2="-1" k3="1"/>
<feColorMatrix type="matrix" values="0 0 0 0 0.341346 0 0 0 0 0.451122 0 0 0 0 1 0 0 0 0.4 0"/>
<feBlend mode="normal" in2="shape" result="effect1_innerShadow_83_4"/>
<feColorMatrix in="SourceAlpha" type="matrix" values="0 0 0 0 0 0 0 0 0 0 0 0 0 0 0 0 0 0 127 0" result="hardAlpha"/>
<feOffset dx="4" dy="4"/>
<feGaussianBlur stdDeviation="2"/>
<feComposite in2="hardAlpha" operator="arithmetic" k2="-1" k3="1"/>
<feColorMatrix type="matrix" values="0 0 0 0 0.341176 0 0 0 0 0.45098 0 0 0 0 1 0 0 0 0.4 0"/>
<feBlend mode="normal" in2="effect1_innerShadow_83_4" result="effect2_innerShadow_83_4"/>
</filter>
<filter id="filter1_d_83_4" x="0" y="820" width="550" height="274" filterUnits="userSpaceOnUse" color-interpolation-filters="sRGB">
<feFlood flood-opacity="0" result="BackgroundImageFix"/>
<feColorMatrix in="SourceAlpha" type="matrix" values="0 0 0 0 0 0 0 0 0 0 0 0 0 0 0 0 0 0 127 0" result="hardAlpha"/>
<feOffset dx="4" dy="-4"/>
<feGaussianBlur stdDeviation="2"/>
<feComposite in2="hardAlpha" operator="out"/>
<feColorMatrix type="matrix" values="0 0 0 0 0.947115 0 0 0 0 0.702368 0 0 0 0 0.359722 0 0 0 0.57 0"/>
<feBlend mode="normal" in2="BackgroundImageFix" result="effect1_dropShadow_83_4"/>
<feBlend mode="normal" in="SourceGraphic" in2="effect1_dropShadow_83_4" result="shape"/>
</filter>
<filter id="filter2_d_83_4" x="1646" y="575.5" width="274" height="518.5" filterUnits="userSpaceOnUse" color-interpolation-filters="sRGB">
<feFlood flood-opacity="0" result="BackgroundImageFix"/>
<feColorMatrix in="SourceAlpha" type="matrix" values="0 0 0 0 0 0 0 0 0 0 0 0 0 0 0 0 0 0 127 0" result="hardAlpha"/>
<feOffset dx="-4" dy="-4"/>
<feGaussianBlur stdDeviation="2"/>
<feComposite in2="hardAlpha" operator="out"/>
<feColorMatrix type="matrix" values="0 0 0 0 0.947115 0 0 0 0 0.702368 0 0 0 0 0.359722 0 0 0 0.57 0"/>
<feBlend mode="normal" in2="BackgroundImageFix" result="effect1_dropShadow_83_4"/>
<feBlend mode="normal" in="SourceGraphic" in2="effect1_dropShadow_83_4" result="shape"/>
</filter>
<filter id="filter3_f_83_4" x="600.882" y="160.564" width="778.482" height="281.504" filterUnits="userSpaceOnUse" color-interpolation-filters="sRGB">
<feFlood flood-opacity="0" result="BackgroundImageFix"/>
<feBlend mode="normal" in="SourceGraphic" in2="BackgroundImageFix" result="shape"/>
<feGaussianBlur stdDeviation="7.35" result="effect1_foregroundBlur_83_4"/>
</filter>
<filter id="filter4_f_83_4" x="472.912" y="130.991" width="177.523" height="171.085" filterUnits="userSpaceOnUse" color-interpolation-filters="sRGB">
<feFlood flood-opacity="0" result="BackgroundImageFix"/>
<feBlend mode="normal" in="SourceGraphic" in2="BackgroundImageFix" result="shape"/>
<feGaussianBlur stdDeviation="2" result="effect1_foregroundBlur_83_4"/>
</filter>
<filter id="filter5_f_83_4" x="1321.83" y="124.991" width="177.523" height="171.085" filterUnits="userSpaceOnUse" color-interpolation-filters="sRGB">
<feFlood flood-opacity="0" result="BackgroundImageFix"/>
<feBlend mode="normal" in="SourceGraphic" in2="BackgroundImageFix" result="shape"/>
<feGaussianBlur stdDeviation="2" result="effect1_foregroundBlur_83_4"/>
</filter>
<filter id="filter6_dd_83_4" x="466.912" y="124.991" width="189.523" height="183.085" filterUnits="userSpaceOnUse" color-interpolation-filters="sRGB">
<feFlood flood-opacity="0" result="BackgroundImageFix"/>
<feColorMatrix in="SourceAlpha" type="matrix" values="0 0 0 0 0 0 0 0 0 0 0 0 0 0 0 0 0 0 127 0" result="hardAlpha"/>
<feOffset dx="2" dy="2"/>
<feGaussianBlur stdDeviation="4"/>
<feComposite in2="hardAlpha" operator="out"/>
<feColorMatrix type="matrix" values="0 0 0 0 0.707156 0 0 0 0 0.0849205 0 0 0 0 0.802885 0 0 0 0.8 0"/>
<feBlend mode="normal" in2="BackgroundImageFix" result="effect1_dropShadow_83_4"/>
<feColorMatrix in="SourceAlpha" type="matrix" values="0 0 0 0 0 0 0 0 0 0 0 0 0 0 0 0 0 0 127 0" result="hardAlpha"/>
<feOffset dx="-2" dy="-2"/>
<feGaussianBlur stdDeviation="4"/>
<feComposite in2="hardAlpha" operator="out"/>
<feColorMatrix type="matrix" values="0 0 0 0 0.705882 0 0 0 0 0.0862745 0 0 0 0 0.803922 0 0 0 0.8 0"/>
<feBlend mode="normal" in2="effect1_dropShadow_83_4" result="effect2_dropShadow_83_4"/>
<feBlend mode="normal" in="SourceGraphic" in2="effect2_dropShadow_83_4" result="shape"/>
</filter>
<filter id="filter7_dd_83_4" x="1315.83" y="118.991" width="189.523" height="183.085" filterUnits="userSpaceOnUse" color-interpolation-filters="sRGB">
<feFlood flood-opacity="0" result="BackgroundImageFix"/>
<feColorMatrix in="SourceAlpha" type="matrix" values="0 0 0 0 0 0 0 0 0 0 0 0 0 0 0 0 0 0 127 0" result="hardAlpha"/>
<feOffset dx="-2" dy="2"/>
<feGaussianBlur stdDeviation="4"/>
<feComposite in2="hardAlpha" operator="out"/>
<feColorMatrix type="matrix" values="0 0 0 0 0.705882 0 0 0 0 0.0862745 0 0 0 0 0.803922 0 0 0 0.8 0"/>
<feBlend mode="normal" in2="BackgroundImageFix" result="effect1_dropShadow_83_4"/>
<feColorMatrix in="SourceAlpha" type="matrix" values="0 0 0 0 0 0 0 0 0 0 0 0 0 0 0 0 0 0 127 0" result="hardAlpha"/>
<feOffset dx="2" dy="-2"/>
<feGaussianBlur stdDeviation="4"/>
<feComposite in2="hardAlpha" operator="out"/>
<feColorMatrix type="matrix" values="0 0 0 0 0.705882 0 0 0 0 0.0862745 0 0 0 0 0.803922 0 0 0 0.8 0"/>
<feBlend mode="normal" in2="effect1_dropShadow_83_4" result="effect2_dropShadow_83_4"/>
<feBlend mode="normal" in="SourceGraphic" in2="effect2_dropShadow_83_4" result="shape"/>
</filter>
<filter id="filter8_f_83_4" x="894.518" y="36.0928" width="158.024" height="119.79" filterUnits="userSpaceOnUse" color-interpolation-filters="sRGB">
<feFlood flood-opacity="0" result="BackgroundImageFix"/>
<feBlend mode="normal" in="SourceGraphic" in2="BackgroundImageFix" result="shape"/>
<feGaussianBlur stdDeviation="2" result="effect1_foregroundBlur_83_4"/>
</filter>
<filter id="filter9_dd_83_4" x="888.518" y="30.0928" width="170.024" height="131.79" filterUnits="userSpaceOnUse" color-interpolation-filters="sRGB">
<feFlood flood-opacity="0" result="BackgroundImageFix"/>
<feColorMatrix in="SourceAlpha" type="matrix" values="0 0 0 0 0 0 0 0 0 0 0 0 0 0 0 0 0 0 127 0" result="hardAlpha"/>
<feOffset dx="-2" dy="2"/>
<feGaussianBlur stdDeviation="4"/>
<feComposite in2="hardAlpha" operator="out"/>
<feColorMatrix type="matrix" values="0 0 0 0 0.705882 0 0 0 0 0.0862745 0 0 0 0 0.803922 0 0 0 0.8 0"/>
<feBlend mode="normal" in2="BackgroundImageFix" result="effect1_dropShadow_83_4"/>
<feColorMatrix in="SourceAlpha" type="matrix" values="0 0 0 0 0 0 0 0 0 0 0 0 0 0 0 0 0 0 127 0" result="hardAlpha"/>
<feOffset dx="2" dy="-2"/>
<feGaussianBlur stdDeviation="4"/>
<feComposite in2="hardAlpha" operator="out"/>
<feColorMatrix type="matrix" values="0 0 0 0 0.705882 0 0 0 0 0.0862745 0 0 0 0 0.803922 0 0 0 0.8 0"/>
<feBlend mode="normal" in2="effect1_dropShadow_83_4" result="effect2_dropShadow_83_4"/>
<feBlend mode="normal" in="SourceGraphic" in2="effect2_dropShadow_83_4" result="shape"/>
</filter>
<linearGradient id="paint0_linear_83_4" x1="960" y1="14" x2="960" y2="1094" gradientUnits="userSpaceOnUse">
<stop stop-color="#3E1A6B"/>
<stop offset="1" stop-color="#4A15B5"/>
</linearGradient>
<linearGradient id="paint1_linear_83_4" x1="104" y1="0" x2="104" y2="937" gradientUnits="userSpaceOnUse">
<stop stop-color="#382893"/>
<stop offset="1" stop-color="#342684"/>
</linearGradient>
<linearGradient id="paint2_linear_83_4" x1="115.5" y1="0" x2="115.5" y2="355" gradientUnits="userSpaceOnUse">
<stop stop-color="#382893"/>
<stop offset="1" stop-color="#342684"/>
</linearGradient>
<linearGradient id="paint3_linear_83_4" x1="123.5" y1="0" x2="123.5" y2="706" gradientUnits="userSpaceOnUse">
<stop stop-color="#382893"/>
<stop offset="1" stop-color="#342684"/>
</linearGradient>
</defs>
</svg>
